<svg width="64" height="32" viewBox="0 0 64 32" fill="none" xmlns="http://www.w3.org/2000/svg">
<rect width="64" height="32" rx="16" fill="url(#paint0_linear_6208_107641)"/>
<mask id="mask0_6208_107641" style="mask-type:alpha" maskUnits="userSpaceOnUse" x="9" y="9" width="14" height="14">
<path d="M16.8248 16.0003L19.6374 13.1878C19.7893 13.0359 19.7893 12.7897 19.6374 12.6378L19.3625 12.3629C19.2106 12.2111 18.9645 12.2111 18.8126 12.3629L15.9999 15.1755L13.1873 12.3629C13.0354 12.2111 12.7893 12.2111 12.6374 12.3629L12.3625 12.6378C12.2106 12.7897 12.2106 13.0359 12.3625 13.1878L15.1751 16.0003L12.3625 18.813C12.2106 18.9648 12.2106 19.2111 12.3625 19.3629L12.6374 19.6378C12.7893 19.7897 13.0354 19.7897 13.1873 19.6378L15.9999 16.8253L18.8126 19.6378C18.9645 19.7897 19.2106 19.7897 19.3625 19.6378L19.6374 19.3629C19.7893 19.2111 19.7893 18.9648 19.6374 18.813L16.8248 16.0003Z" fill="#222222"/>
</mask>
<g mask="url(#mask0_6208_107641)">
<rect x="9" y="9" width="14" height="14" fill="white"/>
</g>
<g clip-path="url(#clip0_6208_107641)">
<path d="M57.3353 18.3992C55.8781 16.8927 51.8988 17.5065 50.9461 17.6181C49.5449 16.279 48.5921 14.6609 48.2559 14.1029C48.7603 12.5964 49.0966 11.0899 49.1526 9.47175C49.1526 8.07683 48.5921 6.57031 47.0229 6.57031C46.4624 6.57031 45.958 6.90509 45.6778 7.35147C45.0052 8.5232 45.2854 10.8667 46.3503 13.2659C45.7338 14.9956 45.1733 16.6695 43.6041 19.6268C41.9787 20.2963 38.5599 21.8586 38.2797 23.5325C38.1676 24.0347 38.3357 24.5369 38.7281 24.9275C39.1204 25.2622 39.6248 25.4296 40.1292 25.4296C42.2029 25.4296 44.2206 22.584 45.6217 20.1847C46.7987 19.7942 48.6482 19.2362 50.4977 18.9014C52.6835 20.7985 54.5891 21.0775 55.5979 21.0775C56.943 21.0775 57.4474 20.5195 57.6155 20.0173C57.8958 19.4594 57.7276 18.8456 57.3353 18.3992ZM55.9342 19.3478C55.8781 19.7384 55.3737 20.1289 54.477 19.9058C53.4121 19.6268 52.4593 19.1246 51.6186 18.455C52.3472 18.3434 53.9725 18.1761 55.1495 18.3992C55.5979 18.5108 56.0462 18.7898 55.9342 19.3478ZM46.5745 7.85364C46.6866 7.68625 46.8547 7.57466 47.0229 7.57466C47.5273 7.57466 47.6394 8.18842 47.6394 8.69059C47.5833 9.86232 47.3591 11.0341 46.9668 12.15C46.1261 9.91812 46.2943 8.35581 46.5745 7.85364ZM46.4624 18.6782C46.9108 17.7855 47.5273 16.2232 47.7515 15.5536C48.2559 16.3906 49.0966 17.3949 49.5449 17.8413C49.5449 17.8971 47.8075 18.2318 46.4624 18.6782ZM43.1557 20.9101C41.8666 23.0304 40.5215 24.3695 39.7929 24.3695C39.6808 24.3695 39.5688 24.3137 39.4567 24.2579C39.2885 24.1463 39.2325 23.9789 39.2885 23.7557C39.4567 22.9746 40.9139 21.9144 43.1557 20.9101Z" fill="white"/>
</g>
<defs>
<linearGradient id="paint0_linear_6208_107641" x1="0" y1="0" x2="67.7135" y2="13.8677" gradientUnits="userSpaceOnUse">
<stop stop-color="#B72818"/>
<stop offset="0.33" stop-color="#BA1650"/>
<stop offset="1" stop-color="#6338EE"/>
</linearGradient>
<clipPath id="clip0_6208_107641">
<rect width="19.5091" height="18.8593" fill="white" transform="translate(38.2456 6.57031)"/>
</clipPath>
</defs>
</svg>
