<svg width="259" height="55" viewBox="0 0 259 55" fill="none" xmlns="http://www.w3.org/2000/svg">
<g filter="url(#filter0_d_777_108888)">
<rect x="8" y="6" width="160" height="39" rx="7" fill="#292929"/>
<path d="M22.928 18.652L21.26 18.628C21.2 18.616 21.176 18.604 21.176 18.544V17.812C21.176 17.764 21.212 17.752 21.248 17.752H23.852C23.924 17.752 23.936 17.776 23.936 17.824V21.628C23.948 21.676 23.924 21.7 23.876 21.724C23.096 22.036 22.304 22.12 21.644 22.12C18.92 22.12 17.48 20.356 17.48 18.076C17.48 15.556 19.244 13.948 21.8 13.948C22.616 13.948 23.276 14.044 23.708 14.248C23.756 14.272 23.768 14.308 23.768 14.368V15.16C23.768 15.22 23.732 15.232 23.696 15.208C23.156 14.932 22.496 14.86 21.824 14.86C19.784 14.836 18.512 16.048 18.512 18.04C18.512 19.804 19.604 21.232 21.692 21.232C22.232 21.232 22.616 21.172 22.928 21.04V18.652ZM28.8253 19.204H26.2093C26.1973 20.344 26.8573 21.244 28.2133 21.244C28.7413 21.244 29.2453 21.148 29.7133 20.92C29.7493 20.896 29.7733 20.92 29.7733 20.968V21.652C29.7733 21.724 29.7493 21.748 29.7133 21.772C29.3053 21.976 28.7773 22.12 28.0213 22.12C25.9453 22.12 25.2013 20.596 25.2013 19.132C25.2013 17.452 26.1853 16.048 27.8533 16.048C29.5693 16.048 30.1933 17.44 30.1933 18.46C30.1933 18.76 30.1693 18.976 30.1453 19.084C30.1453 19.12 30.1093 19.156 30.0613 19.156C29.8813 19.192 29.3533 19.204 28.8253 19.204ZM26.2213 18.46H28.4533C29.0413 18.46 29.1853 18.448 29.2213 18.436C29.2333 18.4 29.2333 18.34 29.2333 18.304C29.2333 17.872 28.9453 16.876 27.8173 16.876C26.8213 16.876 26.3293 17.656 26.2213 18.46ZM34.0589 21.22V21.832C34.0589 21.88 34.0469 21.928 33.9869 21.952C33.7109 22.072 33.4109 22.12 33.0869 22.12C32.2109 22.12 31.6829 21.7 31.6829 20.548V17.032H30.8669C30.7949 17.02 30.7829 16.996 30.7829 16.936V16.252C30.7829 16.192 30.8069 16.168 30.8669 16.168H31.6829C31.6949 15.724 31.7429 14.896 31.7909 14.632C31.8029 14.584 31.8269 14.56 31.8749 14.548L32.6909 14.416C32.7389 14.404 32.7629 14.416 32.7629 14.464C32.7269 14.884 32.6909 15.58 32.6909 16.168H33.9629C34.0109 16.168 34.0349 16.192 34.0349 16.252V16.96C34.0349 17.008 34.0109 17.032 33.9629 17.032H32.6909V20.404C32.6909 20.956 32.8949 21.268 33.4229 21.268C33.6029 21.268 33.7829 21.244 33.9869 21.172C34.0229 21.16 34.0589 21.16 34.0589 21.22ZM37.9519 17.032H37.1719C37.1239 17.032 37.0999 17.008 37.0999 16.948V16.24C37.0999 16.192 37.1239 16.168 37.1719 16.168H37.9519V15.736C37.9519 15.04 38.0479 14.584 38.2279 14.224C38.5399 13.624 39.0559 13.276 39.7999 13.276C40.0519 13.276 40.2199 13.3 40.3519 13.36C40.4119 13.372 40.4119 13.408 40.4119 13.456V14.164C40.4119 14.212 40.3879 14.236 40.3399 14.224C40.2079 14.176 40.0399 14.164 39.9199 14.164C39.3439 14.164 38.9479 14.476 38.9479 15.628V16.168H40.0999C40.1479 16.168 40.1719 16.192 40.1719 16.228V16.948C40.1719 17.008 40.1479 17.02 40.0999 17.032H38.9479V21.916C38.9479 21.964 38.9359 22 38.8759 22H38.0239C37.9759 22 37.9519 21.976 37.9519 21.916V17.032ZM44.0088 21.1V19.216C43.8408 19.192 43.5768 19.168 43.2168 19.168C42.0528 19.168 41.4888 19.564 41.4888 20.236C41.4888 20.776 41.8608 21.304 42.9168 21.304C43.3008 21.304 43.6608 21.244 44.0088 21.1ZM44.9808 18.304V20.98C44.9808 21.184 44.9808 21.364 45.0048 21.556C45.0048 21.58 45.0048 21.592 44.9808 21.604C44.1168 22.012 43.4328 22.12 42.7368 22.12C41.4648 22.12 40.5048 21.496 40.5048 20.236C40.5048 18.964 41.6928 18.4 43.1808 18.4C43.6248 18.4 43.8768 18.412 44.0088 18.424V18.136C44.0088 17.764 43.8288 16.936 42.6528 16.936C42.0768 16.936 41.5488 17.068 41.1288 17.296C41.0928 17.308 41.0448 17.296 41.0448 17.236V16.504C41.0448 16.456 41.0688 16.432 41.1048 16.408C41.5728 16.18 42.1728 16.048 42.8088 16.048C44.3448 16.048 44.9808 17.056 44.9808 18.304ZM49.6204 17.224C49.2844 17.02 48.7324 16.876 48.2284 16.876C47.4364 16.876 47.1724 17.26 47.1724 17.62C47.1724 17.98 47.3884 18.232 48.2884 18.592C49.5004 19.06 49.9924 19.552 49.9924 20.404C49.9924 21.508 49.0924 22.12 47.8444 22.12C47.1844 22.12 46.5844 21.976 46.2364 21.772C46.2004 21.748 46.1764 21.724 46.1764 21.664V20.86C46.1764 20.8 46.2124 20.776 46.2484 20.8C46.7284 21.136 47.3404 21.28 47.8684 21.28C48.6364 21.28 49.0084 20.944 49.0084 20.5C49.0084 20.056 48.7444 19.792 47.9164 19.468C46.7164 19.012 46.2124 18.52 46.2124 17.668C46.2124 16.804 46.9444 16.048 48.2524 16.048C48.9124 16.048 49.4044 16.168 49.6564 16.312C49.7164 16.336 49.7164 16.384 49.7164 16.432V17.164C49.7164 17.224 49.6804 17.26 49.6204 17.224ZM53.7933 21.22V21.832C53.7933 21.88 53.7813 21.928 53.7213 21.952C53.4453 22.072 53.1453 22.12 52.8213 22.12C51.9453 22.12 51.4173 21.7 51.4173 20.548V17.032H50.6013C50.5293 17.02 50.5173 16.996 50.5173 16.936V16.252C50.5173 16.192 50.5413 16.168 50.6013 16.168H51.4173C51.4293 15.724 51.4773 14.896 51.5253 14.632C51.5373 14.584 51.5613 14.56 51.6093 14.548L52.4253 14.416C52.4733 14.404 52.4973 14.416 52.4973 14.464C52.4613 14.884 52.4253 15.58 52.4253 16.168H53.6973C53.7453 16.168 53.7693 16.192 53.7693 16.252V16.96C53.7693 17.008 53.7453 17.032 53.6973 17.032H52.4253V20.404C52.4253 20.956 52.6293 21.268 53.1573 21.268C53.3373 21.268 53.5173 21.244 53.7213 21.172C53.7573 21.16 53.7933 21.16 53.7933 21.22ZM60.5423 17.224C60.2063 17.02 59.6543 16.876 59.1503 16.876C58.3583 16.876 58.0943 17.26 58.0943 17.62C58.0943 17.98 58.3103 18.232 59.2103 18.592C60.4223 19.06 60.9143 19.552 60.9143 20.404C60.9143 21.508 60.0143 22.12 58.7663 22.12C58.1063 22.12 57.5063 21.976 57.1583 21.772C57.1223 21.748 57.0983 21.724 57.0983 21.664V20.86C57.0983 20.8 57.1343 20.776 57.1703 20.8C57.6503 21.136 58.2623 21.28 58.7903 21.28C59.5583 21.28 59.9303 20.944 59.9303 20.5C59.9303 20.056 59.6663 19.792 58.8383 19.468C57.6383 19.012 57.1343 18.52 57.1343 17.668C57.1343 16.804 57.8663 16.048 59.1743 16.048C59.8343 16.048 60.3263 16.168 60.5783 16.312C60.6383 16.336 60.6383 16.384 60.6383 16.432V17.164C60.6383 17.224 60.6023 17.26 60.5423 17.224ZM66.7574 16.24V20.728C66.7574 21.364 66.7934 21.664 66.8294 21.928C66.8294 21.976 66.8174 22 66.7574 22H65.9894C65.9294 22 65.9174 21.988 65.8934 21.94C65.8574 21.808 65.8334 21.592 65.8214 21.424C65.3174 21.94 64.6814 22.12 64.0814 22.12C63.0614 22.12 62.1014 21.604 62.1014 19.864V16.24C62.1014 16.18 62.1254 16.168 62.1854 16.168H63.0374C63.0854 16.168 63.0974 16.192 63.0974 16.24V19.744C63.0974 20.668 63.5294 21.232 64.3694 21.232C64.9454 21.232 65.4014 21.016 65.7614 20.62V16.24C65.7614 16.192 65.7854 16.168 65.8454 16.168H66.6854C66.7574 16.168 66.7574 16.192 66.7574 16.24ZM69.3773 22H68.5253C68.4653 22 68.4533 21.976 68.4533 21.916V17.428C68.4533 16.9 68.4293 16.468 68.4053 16.24C68.4053 16.192 68.4173 16.168 68.4773 16.168H69.2333C69.2813 16.168 69.3053 16.192 69.3293 16.228C69.3653 16.348 69.3893 16.612 69.4013 16.804C69.9533 16.288 70.5413 16.048 71.2013 16.048C71.9213 16.048 72.4613 16.324 72.7973 16.924C73.3013 16.432 73.9253 16.048 74.8013 16.048C75.6893 16.048 76.7453 16.516 76.7453 18.34V21.928C76.7453 21.976 76.7213 22 76.6613 22H75.8333C75.7733 22 75.7493 21.976 75.7493 21.916V18.412C75.7493 17.596 75.3773 16.936 74.5253 16.936C73.9253 16.936 73.4333 17.2 73.0493 17.632C73.0853 17.776 73.1093 18.112 73.1093 18.4V21.916C73.1093 21.976 73.0853 22 73.0253 22H72.1853C72.1253 22 72.1013 21.976 72.1013 21.916V18.376C72.1013 17.464 71.6813 16.936 70.9013 16.936C70.3373 16.936 69.9053 17.152 69.4493 17.608V21.928C69.4493 21.976 69.4373 22 69.3773 22ZM79.3617 22H78.5097C78.4497 22 78.4377 21.976 78.4377 21.916V17.428C78.4377 16.9 78.4137 16.468 78.3897 16.24C78.3897 16.192 78.4017 16.168 78.4617 16.168H79.2177C79.2657 16.168 79.2897 16.192 79.3137 16.228C79.3497 16.348 79.3737 16.612 79.3857 16.804C79.9377 16.288 80.5257 16.048 81.1857 16.048C81.9057 16.048 82.4457 16.324 82.7817 16.924C83.2857 16.432 83.9097 16.048 84.7857 16.048C85.6737 16.048 86.7297 16.516 86.7297 18.34V21.928C86.7297 21.976 86.7057 22 86.6457 22H85.8177C85.7577 22 85.7337 21.976 85.7337 21.916V18.412C85.7337 17.596 85.3617 16.936 84.5097 16.936C83.9097 16.936 83.4177 17.2 83.0337 17.632C83.0697 17.776 83.0937 18.112 83.0937 18.4V21.916C83.0937 21.976 83.0697 22 83.0097 22H82.1697C82.1097 22 82.0857 21.976 82.0857 21.916V18.376C82.0857 17.464 81.6657 16.936 80.8857 16.936C80.3217 16.936 79.8897 17.152 79.4337 17.608V21.928C79.4337 21.976 79.4217 22 79.3617 22ZM91.458 21.1V19.216C91.29 19.192 91.026 19.168 90.666 19.168C89.502 19.168 88.938 19.564 88.938 20.236C88.938 20.776 89.31 21.304 90.366 21.304C90.75 21.304 91.11 21.244 91.458 21.1ZM92.43 18.304V20.98C92.43 21.184 92.43 21.364 92.454 21.556C92.454 21.58 92.454 21.592 92.43 21.604C91.566 22.012 90.882 22.12 90.186 22.12C88.914 22.12 87.954 21.496 87.954 20.236C87.954 18.964 89.142 18.4 90.63 18.4C91.074 18.4 91.326 18.412 91.458 18.424V18.136C91.458 17.764 91.278 16.936 90.102 16.936C89.526 16.936 88.998 17.068 88.578 17.296C88.542 17.308 88.494 17.296 88.494 17.236V16.504C88.494 16.456 88.518 16.432 88.554 16.408C89.022 16.18 89.622 16.048 90.258 16.048C91.794 16.048 92.43 17.056 92.43 18.304ZM94.1056 16.168H94.8736C94.9456 16.168 94.9576 16.192 94.9816 16.252C95.0296 16.396 95.0656 16.816 95.0776 17.08C95.4976 16.504 96.2416 16.048 97.0096 16.048C97.0696 16.048 97.0936 16.06 97.0936 16.132V16.996C97.0936 17.056 97.0816 17.068 97.0096 17.068C96.1816 17.056 95.4256 17.464 95.1256 17.944L95.1136 21.928C95.1136 21.988 95.0896 22 95.0416 22H94.1896C94.1296 22 94.1056 21.976 94.1056 21.916V17.776C94.1056 17.272 94.0816 16.576 94.0456 16.24C94.0456 16.192 94.0576 16.168 94.1056 16.168ZM98.008 21.904V16.252C98.008 16.192 98.032 16.168 98.092 16.168H98.944C98.992 16.168 99.016 16.18 99.016 16.24V21.916C99.016 21.976 99.004 22 98.932 22H98.104C98.044 22 98.008 21.976 98.008 21.904ZM98.512 15.016C98.14 15.016 97.912 14.764 97.912 14.404C97.912 14.044 98.164 13.792 98.524 13.792C98.908 13.792 99.124 14.056 99.124 14.404C99.124 14.764 98.884 15.016 98.512 15.016ZM103.907 19.204H101.291C101.279 20.344 101.939 21.244 103.295 21.244C103.823 21.244 104.327 21.148 104.795 20.92C104.831 20.896 104.855 20.92 104.855 20.968V21.652C104.855 21.724 104.831 21.748 104.795 21.772C104.387 21.976 103.859 22.12 103.103 22.12C101.027 22.12 100.283 20.596 100.283 19.132C100.283 17.452 101.267 16.048 102.935 16.048C104.651 16.048 105.275 17.44 105.275 18.46C105.275 18.76 105.251 18.976 105.227 19.084C105.227 19.12 105.191 19.156 105.143 19.156C104.963 19.192 104.435 19.204 103.907 19.204ZM101.303 18.46H103.535C104.123 18.46 104.267 18.448 104.303 18.436C104.315 18.4 104.315 18.34 104.315 18.304C104.315 17.872 104.027 16.876 102.899 16.876C101.903 16.876 101.411 17.656 101.303 18.46ZM109.667 17.224C109.331 17.02 108.779 16.876 108.275 16.876C107.483 16.876 107.219 17.26 107.219 17.62C107.219 17.98 107.435 18.232 108.335 18.592C109.547 19.06 110.039 19.552 110.039 20.404C110.039 21.508 109.139 22.12 107.891 22.12C107.231 22.12 106.631 21.976 106.283 21.772C106.247 21.748 106.223 21.724 106.223 21.664V20.86C106.223 20.8 106.259 20.776 106.295 20.8C106.775 21.136 107.387 21.28 107.915 21.28C108.683 21.28 109.055 20.944 109.055 20.5C109.055 20.056 108.791 19.792 107.963 19.468C106.763 19.012 106.259 18.52 106.259 17.668C106.259 16.804 106.991 16.048 108.299 16.048C108.959 16.048 109.451 16.168 109.703 16.312C109.763 16.336 109.763 16.384 109.763 16.432V17.164C109.763 17.224 109.727 17.26 109.667 17.224ZM117.052 21.1V19.216C116.884 19.192 116.62 19.168 116.26 19.168C115.096 19.168 114.532 19.564 114.532 20.236C114.532 20.776 114.904 21.304 115.96 21.304C116.344 21.304 116.704 21.244 117.052 21.1ZM118.024 18.304V20.98C118.024 21.184 118.024 21.364 118.048 21.556C118.048 21.58 118.048 21.592 118.024 21.604C117.16 22.012 116.476 22.12 115.78 22.12C114.508 22.12 113.548 21.496 113.548 20.236C113.548 18.964 114.736 18.4 116.224 18.4C116.668 18.4 116.92 18.412 117.052 18.424V18.136C117.052 17.764 116.872 16.936 115.696 16.936C115.12 16.936 114.592 17.068 114.172 17.296C114.136 17.308 114.088 17.296 114.088 17.236V16.504C114.088 16.456 114.112 16.432 114.148 16.408C114.616 16.18 115.216 16.048 115.852 16.048C117.388 16.048 118.024 17.056 118.024 18.304ZM119.699 21.916V17.524C119.699 17.116 119.675 16.444 119.651 16.24C119.651 16.192 119.663 16.168 119.723 16.168H120.467C120.527 16.168 120.551 16.192 120.575 16.24C120.611 16.348 120.623 16.576 120.647 16.84C121.175 16.312 121.787 16.048 122.483 16.048C123.335 16.048 124.439 16.468 124.439 18.364V21.916C124.439 21.976 124.415 22 124.355 22H123.515C123.455 22 123.431 21.976 123.431 21.904V18.46C123.431 17.548 123.035 16.936 122.195 16.936C121.583 16.936 121.079 17.212 120.695 17.668V21.916C120.695 21.976 120.683 22 120.623 22H119.771C119.723 22 119.699 21.976 119.699 21.916ZM128.665 22.12C126.997 22.12 125.701 21.112 125.701 19.132C125.701 17.368 127.009 16.048 128.965 16.048C129.301 16.048 129.493 16.084 129.721 16.12V13.468C129.721 13.408 129.745 13.396 129.793 13.396H130.657C130.717 13.396 130.729 13.42 130.729 13.456V21.016C130.729 21.184 130.729 21.388 130.753 21.592C130.753 21.64 130.741 21.652 130.693 21.676C130.009 22 129.337 22.12 128.665 22.12ZM129.721 21.088V17.032C129.529 16.948 129.241 16.912 128.941 16.912C127.573 16.912 126.721 17.836 126.721 19.084C126.721 20.644 127.705 21.244 128.761 21.244C129.073 21.244 129.445 21.208 129.721 21.088ZM138.84 16.168H139.8C139.86 16.168 139.884 16.216 139.836 16.264C139.5 16.636 137.688 18.388 137.244 18.82C137.232 18.832 137.244 18.856 137.244 18.868C138.024 19.684 139.332 21.04 140.208 21.916C140.244 21.952 140.22 22 140.16 22H139.02C138.96 22 138.936 21.976 138.9 21.94C138.276 21.304 136.764 19.72 136.188 19.096V21.916C136.188 21.976 136.176 22 136.116 22H135.276C135.204 22 135.192 21.976 135.192 21.916V13.468C135.192 13.42 135.204 13.396 135.276 13.396H136.116C136.164 13.396 136.188 13.42 136.188 13.468V18.844C136.752 18.28 138.408 16.564 138.72 16.228C138.768 16.18 138.792 16.168 138.84 16.168ZM143.974 19.204H141.358C141.346 20.344 142.006 21.244 143.362 21.244C143.89 21.244 144.394 21.148 144.862 20.92C144.898 20.896 144.922 20.92 144.922 20.968V21.652C144.922 21.724 144.898 21.748 144.862 21.772C144.454 21.976 143.926 22.12 143.17 22.12C141.094 22.12 140.35 20.596 140.35 19.132C140.35 17.452 141.334 16.048 143.002 16.048C144.718 16.048 145.342 17.44 145.342 18.46C145.342 18.76 145.318 18.976 145.294 19.084C145.294 19.12 145.258 19.156 145.21 19.156C145.03 19.192 144.502 19.204 143.974 19.204ZM141.37 18.46H143.602C144.19 18.46 144.334 18.448 144.37 18.436C144.382 18.4 144.382 18.34 144.382 18.304C144.382 17.872 144.094 16.876 142.966 16.876C141.97 16.876 141.478 17.656 141.37 18.46ZM145.98 16.168H146.928C146.976 16.168 147 16.192 147.012 16.228C148.008 18.868 148.5 20.236 148.668 20.776C149.052 19.672 149.556 18.292 150.288 16.228C150.312 16.192 150.336 16.168 150.384 16.168H151.236C151.296 16.168 151.308 16.204 151.284 16.252C150.396 18.856 149.16 21.928 148.02 24.496C147.996 24.544 147.96 24.568 147.888 24.58L146.988 24.652C146.928 24.652 146.928 24.616 146.952 24.556C147.3 23.824 147.744 22.852 148.14 21.904C148.164 21.856 148.164 21.82 148.14 21.748C147.852 21.028 146.652 18.112 145.92 16.24C145.896 16.192 145.932 16.168 145.98 16.168ZM17.84 36.904V31.252C17.84 31.192 17.864 31.168 17.924 31.168H18.776C18.824 31.168 18.848 31.18 18.848 31.24V36.916C18.848 36.976 18.836 37 18.764 37H17.936C17.876 37 17.84 36.976 17.84 36.904ZM18.344 30.016C17.972 30.016 17.744 29.764 17.744 29.404C17.744 29.044 17.996 28.792 18.356 28.792C18.74 28.792 18.956 29.056 18.956 29.404C18.956 29.764 18.716 30.016 18.344 30.016ZM20.5353 36.916V32.524C20.5353 32.116 20.5113 31.444 20.4873 31.24C20.4873 31.192 20.4993 31.168 20.5593 31.168H21.3033C21.3633 31.168 21.3873 31.192 21.4113 31.24C21.4473 31.348 21.4593 31.576 21.4833 31.84C22.0113 31.312 22.6233 31.048 23.3193 31.048C24.1713 31.048 25.2753 31.468 25.2753 33.364V36.916C25.2753 36.976 25.2513 37 25.1913 37H24.3513C24.2913 37 24.2673 36.976 24.2673 36.904V33.46C24.2673 32.548 23.8713 31.936 23.0313 31.936C22.4193 31.936 21.9153 32.212 21.5313 32.668V36.916C21.5313 36.976 21.5193 37 21.4593 37H20.6073C20.5593 37 20.5353 36.976 20.5353 36.916ZM29.9798 32.224C29.6438 32.02 29.0918 31.876 28.5878 31.876C27.7958 31.876 27.5318 32.26 27.5318 32.62C27.5318 32.98 27.7478 33.232 28.6478 33.592C29.8598 34.06 30.3518 34.552 30.3518 35.404C30.3518 36.508 29.4518 37.12 28.2038 37.12C27.5438 37.12 26.9438 36.976 26.5958 36.772C26.5598 36.748 26.5358 36.724 26.5358 36.664V35.86C26.5358 35.8 26.5718 35.776 26.6078 35.8C27.0878 36.136 27.6998 36.28 28.2278 36.28C28.9958 36.28 29.3678 35.944 29.3678 35.5C29.3678 35.056 29.1038 34.792 28.2758 34.468C27.0758 34.012 26.5718 33.52 26.5718 32.668C26.5718 31.804 27.3038 31.048 28.6118 31.048C29.2718 31.048 29.7638 31.168 30.0158 31.312C30.0758 31.336 30.0758 31.384 30.0758 31.432V32.164C30.0758 32.224 30.0398 32.26 29.9798 32.224ZM31.5509 36.904V31.252C31.5509 31.192 31.5749 31.168 31.6349 31.168H32.4869C32.5349 31.168 32.5589 31.18 32.5589 31.24V36.916C32.5589 36.976 32.5469 37 32.4749 37H31.6469C31.5869 37 31.5509 36.976 31.5509 36.904ZM32.0549 30.016C31.6829 30.016 31.4549 29.764 31.4549 29.404C31.4549 29.044 31.7069 28.792 32.0669 28.792C32.4509 28.792 32.6669 29.056 32.6669 29.404C32.6669 29.764 32.4269 30.016 32.0549 30.016ZM36.6136 36.88L35.3416 36.82C34.8496 37.168 34.5376 37.672 34.5376 37.936C34.5376 38.488 35.1976 39.052 36.3016 39.052C37.6216 39.052 38.2096 38.428 38.2096 37.828C38.2096 37.12 37.4656 36.928 36.6136 36.88ZM36.0976 31.816C35.3416 31.816 34.8496 32.308 34.8496 33.076C34.8496 33.808 35.2816 34.336 36.0856 34.336C36.8416 34.336 37.3096 33.88 37.3096 33.1C37.3096 32.404 36.9376 31.816 36.0976 31.816ZM35.5936 35.956L36.8176 36.016C38.3056 36.088 39.1456 36.628 39.1456 37.684C39.1456 38.884 38.0056 39.832 36.2416 39.832C34.4656 39.832 33.5896 38.896 33.5896 38.008C33.5896 37.6 33.9376 37.06 34.7656 36.364C34.5736 36.1 34.4776 35.788 34.4776 35.464C34.4776 35.2 34.5496 34.936 34.6816 34.708C34.1896 34.384 33.8656 33.844 33.8656 33.088C33.8656 31.972 34.6936 31.048 36.1096 31.048C36.4816 31.048 36.7936 31.096 37.0096 31.144C37.1176 31.168 37.1896 31.168 37.2616 31.168H38.9536C39.0136 31.168 39.0256 31.192 39.0256 31.24V31.924C39.0256 31.972 39.0136 31.996 38.9536 31.996C38.6416 31.996 38.1376 31.972 37.8496 31.948C38.0656 32.176 38.2696 32.56 38.2696 33.112C38.2696 34.432 37.2856 35.092 36.0976 35.092C35.8696 35.092 35.6536 35.068 35.4376 35.02C35.3776 35.164 35.3536 35.32 35.3776 35.464C35.4016 35.644 35.4736 35.812 35.5936 35.956ZM40.9493 32.596V36.928C40.9493 36.988 40.9373 37 40.8773 37H40.0373C39.9773 37 39.9533 36.976 39.9533 36.916V28.468C39.9533 28.42 39.9653 28.396 40.0253 28.396H40.8893C40.9373 28.396 40.9493 28.408 40.9493 28.456L40.9613 31.744C41.4533 31.288 42.0293 31.048 42.7373 31.048C43.5893 31.048 44.6933 31.468 44.6933 33.364V36.916C44.6933 36.976 44.6693 37 44.6093 37H43.7693C43.7093 37 43.6853 36.976 43.6853 36.904V33.472C43.6853 32.548 43.2893 31.936 42.4493 31.936C41.8613 31.936 41.3333 32.176 40.9493 32.596ZM48.8949 36.22V36.832C48.8949 36.88 48.8829 36.928 48.8229 36.952C48.5469 37.072 48.2469 37.12 47.9229 37.12C47.0469 37.12 46.5189 36.7 46.5189 35.548V32.032H45.7029C45.6309 32.02 45.6189 31.996 45.6189 31.936V31.252C45.6189 31.192 45.6429 31.168 45.7029 31.168H46.5189C46.5309 30.724 46.5789 29.896 46.6269 29.632C46.6389 29.584 46.6629 29.56 46.7109 29.548L47.5269 29.416C47.5749 29.404 47.5989 29.416 47.5989 29.464C47.5629 29.884 47.5269 30.58 47.5269 31.168H48.7989C48.8469 31.168 48.8709 31.192 48.8709 31.252V31.96C48.8709 32.008 48.8469 32.032 48.7989 32.032H47.5269V35.404C47.5269 35.956 47.7309 36.268 48.2589 36.268C48.4389 36.268 48.6189 36.244 48.8229 36.172C48.8589 36.16 48.8949 36.16 48.8949 36.22ZM53.1829 32.224C52.8469 32.02 52.2949 31.876 51.7909 31.876C50.9989 31.876 50.7349 32.26 50.7349 32.62C50.7349 32.98 50.9509 33.232 51.8509 33.592C53.0629 34.06 53.5549 34.552 53.5549 35.404C53.5549 36.508 52.6549 37.12 51.4069 37.12C50.7469 37.12 50.1469 36.976 49.7989 36.772C49.7629 36.748 49.7389 36.724 49.7389 36.664V35.86C49.7389 35.8 49.7749 35.776 49.8109 35.8C50.2909 36.136 50.9029 36.28 51.4309 36.28C52.1989 36.28 52.5709 35.944 52.5709 35.5C52.5709 35.056 52.3069 34.792 51.4789 34.468C50.2789 34.012 49.7749 33.52 49.7749 32.668C49.7749 31.804 50.5069 31.048 51.8149 31.048C52.4749 31.048 52.9669 31.168 53.2189 31.312C53.2789 31.336 53.2789 31.384 53.2789 31.432V32.164C53.2789 32.224 53.2429 32.26 53.1829 32.224ZM59.8714 31.048C61.5634 31.048 62.6074 32.344 62.6074 34.072C62.6074 35.896 61.4794 37.12 59.8714 37.12C57.9394 37.12 57.1114 35.56 57.1114 34.084C57.1114 32.392 58.1914 31.048 59.8714 31.048ZM59.8234 31.912C58.8154 31.912 58.1194 32.776 58.1194 34.06C58.1194 35.284 58.7554 36.256 59.8954 36.256C60.7474 36.256 61.5874 35.584 61.5874 34.096C61.5874 32.98 61.0714 31.912 59.8234 31.912ZM63.8595 36.916V32.524C63.8595 32.116 63.8355 31.444 63.8115 31.24C63.8115 31.192 63.8235 31.168 63.8835 31.168H64.6275C64.6875 31.168 64.7115 31.192 64.7355 31.24C64.7715 31.348 64.7835 31.576 64.8075 31.84C65.3355 31.312 65.9475 31.048 66.6435 31.048C67.4955 31.048 68.5995 31.468 68.5995 33.364V36.916C68.5995 36.976 68.5755 37 68.5155 37H67.6755C67.6155 37 67.5915 36.976 67.5915 36.904V33.46C67.5915 32.548 67.1955 31.936 66.3555 31.936C65.7435 31.936 65.2395 32.212 64.8555 32.668V36.916C64.8555 36.976 64.8435 37 64.7835 37H63.9315C63.8835 37 63.8595 36.976 63.8595 36.916ZM75.5668 36.22V36.832C75.5668 36.88 75.5548 36.928 75.4948 36.952C75.2188 37.072 74.9188 37.12 74.5948 37.12C73.7188 37.12 73.1908 36.7 73.1908 35.548V32.032H72.3748C72.3028 32.02 72.2908 31.996 72.2908 31.936V31.252C72.2908 31.192 72.3148 31.168 72.3748 31.168H73.1908C73.2028 30.724 73.2508 29.896 73.2988 29.632C73.3108 29.584 73.3348 29.56 73.3828 29.548L74.1988 29.416C74.2468 29.404 74.2708 29.416 74.2708 29.464C74.2348 29.884 74.1988 30.58 74.1988 31.168H75.4708C75.5188 31.168 75.5428 31.192 75.5428 31.252V31.96C75.5428 32.008 75.5188 32.032 75.4708 32.032H74.1988V35.404C74.1988 35.956 74.4028 36.268 74.9308 36.268C75.1108 36.268 75.2908 36.244 75.4948 36.172C75.5308 36.16 75.5668 36.16 75.5668 36.22ZM77.6524 32.596V36.928C77.6524 36.988 77.6404 37 77.5804 37H76.7404C76.6804 37 76.6564 36.976 76.6564 36.916V28.468C76.6564 28.42 76.6684 28.396 76.7284 28.396H77.5924C77.6404 28.396 77.6524 28.408 77.6524 28.456L77.6644 31.744C78.1564 31.288 78.7324 31.048 79.4404 31.048C80.2924 31.048 81.3964 31.468 81.3964 33.364V36.916C81.3964 36.976 81.3724 37 81.3124 37H80.4724C80.4124 37 80.3884 36.976 80.3884 36.904V33.472C80.3884 32.548 79.9924 31.936 79.1524 31.936C78.5644 31.936 78.0364 32.176 77.6524 32.596ZM83.09 36.904V31.252C83.09 31.192 83.114 31.168 83.174 31.168H84.026C84.074 31.168 84.098 31.18 84.098 31.24V36.916C84.098 36.976 84.086 37 84.014 37H83.186C83.126 37 83.09 36.976 83.09 36.904ZM83.594 30.016C83.222 30.016 82.994 29.764 82.994 29.404C82.994 29.044 83.246 28.792 83.606 28.792C83.99 28.792 84.206 29.056 84.206 29.404C84.206 29.764 83.966 30.016 83.594 30.016ZM88.8782 32.224C88.5422 32.02 87.9902 31.876 87.4862 31.876C86.6942 31.876 86.4302 32.26 86.4302 32.62C86.4302 32.98 86.6462 33.232 87.5462 33.592C88.7582 34.06 89.2502 34.552 89.2502 35.404C89.2502 36.508 88.3502 37.12 87.1022 37.12C86.4422 37.12 85.8422 36.976 85.4942 36.772C85.4582 36.748 85.4342 36.724 85.4342 36.664V35.86C85.4342 35.8 85.4702 35.776 85.5062 35.8C85.9862 36.136 86.5982 36.28 87.1262 36.28C87.8942 36.28 88.2662 35.944 88.2662 35.5C88.2662 35.056 88.0022 34.792 87.1742 34.468C85.9742 34.012 85.4702 33.52 85.4702 32.668C85.4702 31.804 86.2022 31.048 87.5102 31.048C88.1702 31.048 88.6622 31.168 88.9142 31.312C88.9742 31.336 88.9742 31.384 88.9742 31.432V32.164C88.9742 32.224 88.9382 32.26 88.8782 32.224ZM98.9627 37H98.0147C97.9427 37 97.9187 36.976 97.9067 36.916C97.0187 33.736 96.7907 32.74 96.6587 32.176H96.6467C96.4307 33.136 95.9987 34.6 95.3147 36.916C95.2907 36.988 95.2547 37 95.1947 37H94.2707C94.1747 37 94.1507 36.976 94.1387 36.916L92.5787 31.252C92.5547 31.204 92.5787 31.168 92.6387 31.168H93.5387C93.5747 31.168 93.6107 31.18 93.6227 31.228C94.5107 34.528 94.7147 35.632 94.7987 36.052H94.8227C94.9187 35.644 95.1347 34.648 96.1547 31.252C96.1667 31.192 96.1787 31.168 96.2387 31.168H97.2107C97.2587 31.168 97.2827 31.192 97.2947 31.24C98.2667 34.72 98.4347 35.596 98.5307 36.064H98.5547C98.6867 35.5 98.8667 34.48 99.8027 31.228C99.8147 31.192 99.8387 31.168 99.8867 31.168H100.727C100.775 31.168 100.799 31.192 100.787 31.24L99.0707 36.928C99.0467 36.976 99.0347 37 98.9627 37ZM105.079 34.204H102.463C102.451 35.344 103.111 36.244 104.467 36.244C104.995 36.244 105.499 36.148 105.967 35.92C106.003 35.896 106.027 35.92 106.027 35.968V36.652C106.027 36.724 106.003 36.748 105.967 36.772C105.559 36.976 105.031 37.12 104.275 37.12C102.199 37.12 101.455 35.596 101.455 34.132C101.455 32.452 102.439 31.048 104.107 31.048C105.823 31.048 106.447 32.44 106.447 33.46C106.447 33.76 106.423 33.976 106.399 34.084C106.399 34.12 106.363 34.156 106.315 34.156C106.135 34.192 105.607 34.204 105.079 34.204ZM102.475 33.46H104.707C105.295 33.46 105.439 33.448 105.475 33.436C105.487 33.4 105.487 33.34 105.487 33.304C105.487 32.872 105.199 31.876 104.071 31.876C103.075 31.876 102.583 32.656 102.475 33.46ZM107.748 28.396H108.588C108.648 28.396 108.672 28.396 108.672 28.468V31.288C109.056 31.132 109.488 31.048 109.968 31.048C111.624 31.048 112.704 32.236 112.704 33.856C112.704 36.016 111.072 37.12 109.38 37.12C108.78 37.12 108.252 37.048 107.736 36.88C107.688 36.868 107.664 36.82 107.664 36.772V28.468C107.664 28.408 107.688 28.396 107.748 28.396ZM111.684 33.94C111.684 32.716 110.964 31.924 109.812 31.924C109.296 31.924 108.972 32.008 108.672 32.128V36.16C108.9 36.232 109.14 36.256 109.464 36.256C110.616 36.256 111.684 35.488 111.684 33.94ZM116.201 31.048C117.977 31.048 119.009 32.272 119.009 33.88C119.009 36.064 117.281 37.12 115.577 37.12C115.301 37.12 115.133 37.096 114.965 37.072V39.472C114.965 39.52 114.965 39.544 114.905 39.556C114.629 39.58 114.077 39.64 114.029 39.652C113.981 39.652 113.969 39.64 113.969 39.58V32.104C113.969 31.996 113.957 31.732 113.945 31.576C113.945 31.564 113.945 31.54 113.969 31.528C114.389 31.372 115.181 31.048 116.201 31.048ZM116.081 31.924C115.661 31.924 115.301 31.996 114.965 32.116V36.184C115.169 36.244 115.421 36.256 115.649 36.256C116.813 36.256 117.989 35.536 117.989 33.94C117.989 32.716 117.293 31.924 116.081 31.924ZM123.415 36.1V34.216C123.247 34.192 122.983 34.168 122.623 34.168C121.459 34.168 120.895 34.564 120.895 35.236C120.895 35.776 121.267 36.304 122.323 36.304C122.707 36.304 123.067 36.244 123.415 36.1ZM124.387 33.304V35.98C124.387 36.184 124.387 36.364 124.411 36.556C124.411 36.58 124.411 36.592 124.387 36.604C123.523 37.012 122.839 37.12 122.143 37.12C120.871 37.12 119.911 36.496 119.911 35.236C119.911 33.964 121.099 33.4 122.587 33.4C123.031 33.4 123.283 33.412 123.415 33.424V33.136C123.415 32.764 123.235 31.936 122.059 31.936C121.483 31.936 120.955 32.068 120.535 32.296C120.499 32.308 120.451 32.296 120.451 32.236V31.504C120.451 31.456 120.475 31.432 120.511 31.408C120.979 31.18 121.579 31.048 122.215 31.048C123.751 31.048 124.387 32.056 124.387 33.304ZM128.301 36.88L127.029 36.82C126.537 37.168 126.225 37.672 126.225 37.936C126.225 38.488 126.885 39.052 127.989 39.052C129.309 39.052 129.897 38.428 129.897 37.828C129.897 37.12 129.153 36.928 128.301 36.88ZM127.785 31.816C127.029 31.816 126.537 32.308 126.537 33.076C126.537 33.808 126.969 34.336 127.773 34.336C128.529 34.336 128.997 33.88 128.997 33.1C128.997 32.404 128.625 31.816 127.785 31.816ZM127.281 35.956L128.505 36.016C129.993 36.088 130.833 36.628 130.833 37.684C130.833 38.884 129.693 39.832 127.929 39.832C126.153 39.832 125.277 38.896 125.277 38.008C125.277 37.6 125.625 37.06 126.453 36.364C126.261 36.1 126.165 35.788 126.165 35.464C126.165 35.2 126.237 34.936 126.369 34.708C125.877 34.384 125.553 33.844 125.553 33.088C125.553 31.972 126.381 31.048 127.797 31.048C128.169 31.048 128.481 31.096 128.697 31.144C128.805 31.168 128.877 31.168 128.949 31.168H130.641C130.701 31.168 130.713 31.192 130.713 31.24V31.924C130.713 31.972 130.701 31.996 130.641 31.996C130.329 31.996 129.825 31.972 129.537 31.948C129.753 32.176 129.957 32.56 129.957 33.112C129.957 34.432 128.973 35.092 127.785 35.092C127.557 35.092 127.341 35.068 127.125 35.02C127.065 35.164 127.041 35.32 127.065 35.464C127.089 35.644 127.161 35.812 127.281 35.956ZM134.88 34.204H132.264C132.252 35.344 132.912 36.244 134.268 36.244C134.796 36.244 135.3 36.148 135.768 35.92C135.804 35.896 135.828 35.92 135.828 35.968V36.652C135.828 36.724 135.804 36.748 135.768 36.772C135.36 36.976 134.832 37.12 134.076 37.12C132 37.12 131.256 35.596 131.256 34.132C131.256 32.452 132.24 31.048 133.908 31.048C135.624 31.048 136.248 32.44 136.248 33.46C136.248 33.76 136.224 33.976 136.2 34.084C136.2 34.12 136.164 34.156 136.116 34.156C135.936 34.192 135.408 34.204 134.88 34.204ZM132.276 33.46H134.508C135.096 33.46 135.24 33.448 135.276 33.436C135.288 33.4 135.288 33.34 135.288 33.304C135.288 32.872 135 31.876 133.872 31.876C132.876 31.876 132.384 32.656 132.276 33.46Z" fill="white"/>
<path d="M172.293 26.2071L168 30.5V20.5L172.293 24.7929C172.683 25.1834 172.683 25.8166 172.293 26.2071Z" fill="#292929"/>
<rect x="177" y="9" width="64" height="32" rx="16" fill="url(#paint0_linear_777_108888)"/>
<mask id="mask0_777_108888" style="mask-type:alpha" maskUnits="userSpaceOnUse" x="186" y="18" width="14" height="14">
<path d="M193.825 25.0003L196.637 22.1878C196.789 22.0359 196.789 21.7897 196.637 21.6378L196.362 21.3629C196.211 21.2111 195.964 21.2111 195.813 21.3629L193 24.1755L190.187 21.3629C190.035 21.2111 189.789 21.2111 189.637 21.3629L189.362 21.6378C189.211 21.7897 189.211 22.0359 189.362 22.1878L192.175 25.0003L189.362 27.813C189.211 27.9648 189.211 28.2111 189.362 28.3629L189.637 28.6378C189.789 28.7897 190.035 28.7897 190.187 28.6378L193 25.8253L195.813 28.6378C195.964 28.7897 196.211 28.7897 196.362 28.6378L196.637 28.3629C196.789 28.2111 196.789 27.9648 196.637 27.813L193.825 25.0003Z" fill="#222222"/>
</mask>
<g mask="url(#mask0_777_108888)">
<rect x="186" y="18" width="14" height="14" fill="white"/>
</g>
<g clip-path="url(#clip0_777_108888)">
<path d="M234.335 27.3992C232.878 25.8927 228.899 26.5065 227.946 26.6181C226.545 25.279 225.592 23.6609 225.256 23.1029C225.76 21.5964 226.097 20.0899 226.153 18.4717C226.153 17.0768 225.592 15.5703 224.023 15.5703C223.462 15.5703 222.958 15.9051 222.678 16.3515C222.005 17.5232 222.285 19.8667 223.35 22.2659C222.734 23.9956 222.173 25.6695 220.604 28.6268C218.979 29.2963 215.56 30.8586 215.28 32.5325C215.168 33.0347 215.336 33.5369 215.728 33.9275C216.12 34.2622 216.625 34.4296 217.129 34.4296C219.203 34.4296 221.221 31.584 222.622 29.1847C223.799 28.7942 225.648 28.2362 227.498 27.9014C229.683 29.7985 231.589 30.0775 232.598 30.0775C233.943 30.0775 234.447 29.5195 234.616 29.0173C234.896 28.4594 234.728 27.8456 234.335 27.3992ZM232.934 28.3478C232.878 28.7384 232.374 29.1289 231.477 28.9058C230.412 28.6268 229.459 28.1246 228.619 27.455C229.347 27.3434 230.973 27.1761 232.15 27.3992C232.598 27.5108 233.046 27.7898 232.934 28.3478ZM223.574 16.8536C223.687 16.6862 223.855 16.5747 224.023 16.5747C224.527 16.5747 224.639 17.1884 224.639 17.6906C224.583 18.8623 224.359 20.0341 223.967 21.15C223.126 18.9181 223.294 17.3558 223.574 16.8536ZM223.462 27.6782C223.911 26.7855 224.527 25.2232 224.751 24.5536C225.256 25.3906 226.097 26.3949 226.545 26.8413C226.545 26.8971 224.807 27.2318 223.462 27.6782ZM220.156 29.9101C218.867 32.0304 217.522 33.3695 216.793 33.3695C216.681 33.3695 216.569 33.3137 216.457 33.2579C216.289 33.1463 216.232 32.9789 216.289 32.7557C216.457 31.9746 217.914 30.9144 220.156 29.9101Z" fill="white"/>
</g>
</g>
<defs>
<filter id="filter0_d_777_108888" x="0" y="0" width="267" height="55" filterUnits="userSpaceOnUse" color-interpolation-filters="sRGB">
<feFlood flood-opacity="0" result="BackgroundImageFix"/>
<feColorMatrix in="SourceAlpha" type="matrix" values="0 0 0 0 0 0 0 0 0 0 0 0 0 0 0 0 0 0 127 0" result="hardAlpha"/>
<feOffset dy="2"/>
<feGaussianBlur stdDeviation="4"/>
<feComposite in2="hardAlpha" operator="out"/>
<feColorMatrix type="matrix" values="0 0 0 0 0 0 0 0 0 0 0 0 0 0 0 0 0 0 0.16 0"/>
<feBlend mode="normal" in2="BackgroundImageFix" result="effect1_dropShadow_777_108888"/>
<feBlend mode="normal" in="SourceGraphic" in2="effect1_dropShadow_777_108888" result="shape"/>
</filter>
<linearGradient id="paint0_linear_777_108888" x1="177" y1="9" x2="244.713" y2="22.8677" gradientUnits="userSpaceOnUse">
<stop stop-color="#B72818"/>
<stop offset="0.33" stop-color="#BA1650"/>
<stop offset="1" stop-color="#6338EE"/>
</linearGradient>
<clipPath id="clip0_777_108888">
<rect width="19.5091" height="18.8593" fill="white" transform="translate(215.246 15.5703)"/>
</clipPath>
</defs>
</svg>
