<svg width="58" height="48" viewBox="0 0 58 48" fill="none" xmlns="http://www.w3.org/2000/svg">
<g filter="url(#filter0_d_777_108882)">
<rect x="18" y="6" width="32" height="32" rx="16" fill="url(#paint0_linear_777_108882)"/>
<g clip-path="url(#clip0_777_108882)">
<path d="M43.3353 24.3992C41.8781 22.8927 37.8988 23.5065 36.9461 23.6181C35.5449 22.279 34.5921 20.6609 34.2559 20.1029C34.7603 18.5964 35.0966 17.0899 35.1526 15.4717C35.1526 14.0768 34.5921 12.5703 33.0229 12.5703C32.4624 12.5703 31.958 12.9051 31.6778 13.3515C31.0052 14.5232 31.2854 16.8667 32.3503 19.2659C31.7338 20.9956 31.1733 22.6695 29.6041 25.6268C27.9787 26.2963 24.5599 27.8586 24.2797 29.5325C24.1676 30.0347 24.3357 30.5369 24.7281 30.9275C25.1204 31.2622 25.6248 31.4296 26.1292 31.4296C28.2029 31.4296 30.2206 28.584 31.6217 26.1847C32.7987 25.7942 34.6482 25.2362 36.4977 24.9014C38.6835 26.7985 40.5891 27.0775 41.5979 27.0775C42.943 27.0775 43.4474 26.5195 43.6155 26.0173C43.8958 25.4594 43.7276 24.8456 43.3353 24.3992ZM41.9342 25.3478C41.8781 25.7384 41.3737 26.1289 40.477 25.9058C39.4121 25.6268 38.4593 25.1246 37.6186 24.455C38.3472 24.3434 39.9725 24.1761 41.1495 24.3992C41.5979 24.5108 42.0462 24.7898 41.9342 25.3478ZM32.5745 13.8536C32.6866 13.6862 32.8547 13.5747 33.0229 13.5747C33.5273 13.5747 33.6394 14.1884 33.6394 14.6906C33.5833 15.8623 33.3591 17.0341 32.9668 18.15C32.1261 15.9181 32.2943 14.3558 32.5745 13.8536ZM32.4624 24.6782C32.9108 23.7855 33.5273 22.2232 33.7515 21.5536C34.2559 22.3906 35.0966 23.3949 35.5449 23.8413C35.5449 23.8971 33.8075 24.2318 32.4624 24.6782ZM29.1557 26.9101C27.8666 29.0304 26.5215 30.3695 25.7929 30.3695C25.6808 30.3695 25.5688 30.3137 25.4567 30.2579C25.2885 30.1463 25.2325 29.9789 25.2885 29.7557C25.4567 28.9746 26.9139 27.9144 29.1557 26.9101Z" fill="white"/>
</g>
</g>
<defs>
<filter id="filter0_d_777_108882" x="-8" y="0" width="66" height="48" filterUnits="userSpaceOnUse" color-interpolation-filters="sRGB">
<feFlood flood-opacity="0" result="BackgroundImageFix"/>
<feColorMatrix in="SourceAlpha" type="matrix" values="0 0 0 0 0 0 0 0 0 0 0 0 0 0 0 0 0 0 127 0" result="hardAlpha"/>
<feOffset dy="2"/>
<feGaussianBlur stdDeviation="4"/>
<feComposite in2="hardAlpha" operator="out"/>
<feColorMatrix type="matrix" values="0 0 0 0 0 0 0 0 0 0 0 0 0 0 0 0 0 0 0.16 0"/>
<feBlend mode="normal" in2="BackgroundImageFix" result="effect1_dropShadow_777_108882"/>
<feBlend mode="normal" in="SourceGraphic" in2="effect1_dropShadow_777_108882" result="shape"/>
</filter>
<linearGradient id="paint0_linear_777_108882" x1="18" y1="6" x2="52.9107" y2="9.57486" gradientUnits="userSpaceOnUse">
<stop stop-color="#D73220"/>
<stop offset="0.33" stop-color="#D92361"/>
<stop offset="1" stop-color="#7155FA"/>
</linearGradient>
<clipPath id="clip0_777_108882">
<rect width="19.5091" height="18.8593" fill="white" transform="translate(24.2456 12.5703)"/>
</clipPath>
</defs>
</svg>
